<svg width="25" height="24" viewBox="0 0 25 24" fill="none" xmlns="http://www.w3.org/2000/svg">
<circle cx="12.5" cy="8" r="2.5" stroke="#6C63FF" stroke-linecap="round"/>
<path d="M14.2679 6.5C14.4657 6.15743 14.7607 5.88121 15.1154 5.70625C15.4702 5.5313 15.8689 5.46548 16.2611 5.51711C16.6532 5.56874 17.0213 5.73551 17.3187 5.99632C17.6161 6.25713 17.8295 6.60028 17.9319 6.98236C18.0342 7.36445 18.021 7.76831 17.8939 8.14288C17.7667 8.51745 17.5313 8.8459 17.2175 9.08671C16.9037 9.32751 16.5255 9.46985 16.1308 9.49572C15.7361 9.52159 15.3426 9.42983 15 9.23205" stroke="#6C63FF"/>
<path d="M10.7321 6.5C10.5343 6.15743 10.2393 5.88121 9.88458 5.70625C9.52981 5.5313 9.13113 5.46548 8.73895 5.51711C8.34677 5.56874 7.97871 5.73551 7.68131 5.99632C7.38391 6.25713 7.17053 6.60028 7.06815 6.98236C6.96577 7.36445 6.97899 7.76831 7.10614 8.14288C7.23329 8.51745 7.46866 8.8459 7.78248 9.08671C8.0963 9.32751 8.47448 9.46985 8.86919 9.49572C9.26391 9.52159 9.65743 9.42983 10 9.23205" stroke="#6C63FF"/>
<path d="M12.5 12.5C16.5802 12.5 17.6335 15.8022 17.9054 17.507C17.9924 18.0524 17.5523 18.5 17 18.5H8C7.44771 18.5 7.00763 18.0524 7.09461 17.507C7.36649 15.8022 8.41976 12.5 12.5 12.5Z" stroke="#6C63FF" stroke-linecap="round"/>
<path d="M19.7965 15.4162L19.3115 15.5377L19.7965 15.4162ZM13.5871 12.5859L13.2179 12.2488L12.5974 12.9283L13.5051 13.0791L13.5871 12.5859ZM17.6813 16.5L17.201 16.639L17.3055 17H17.6813V16.5ZM16 12C17.0277 12 17.7495 12.5027 18.2783 13.2069C18.8177 13.9253 19.1344 14.8306 19.3115 15.5377L20.2816 15.2948C20.0904 14.5315 19.7329 13.4787 19.078 12.6065C18.4126 11.7203 17.4202 11 16 11V12ZM13.9563 12.923C14.4567 12.375 15.1107 12 16 12V11C14.7828 11 13.8736 11.5306 13.2179 12.2488L13.9563 12.923ZM13.5051 13.0791C15.8056 13.4614 16.7789 15.1801 17.201 16.639L18.1616 16.361C17.6905 14.7326 16.519 12.5663 13.6691 12.0927L13.5051 13.0791ZM18.895 16H17.6813V17H18.895V16ZM19.3115 15.5377C19.3653 15.7526 19.2075 16 18.895 16V17C19.7657 17 20.5152 16.2277 20.2816 15.2948L19.3115 15.5377Z" fill="#6C63FF"/>
<path d="M11.4129 12.5859L11.4949 13.0791L12.4026 12.9283L11.7821 12.2488L11.4129 12.5859ZM5.20343 15.4162L5.68845 15.5377L5.20343 15.4162ZM7.31868 16.5V17H7.69453L7.79898 16.639L7.31868 16.5ZM8.99999 12C9.88931 12 10.5433 12.375 11.0436 12.923L11.7821 12.2488C11.1264 11.5306 10.2172 11 8.99999 11V12ZM5.68845 15.5377C5.86554 14.8306 6.18228 13.9253 6.72167 13.2069C7.25048 12.5027 7.97226 12 8.99999 12V11C7.5798 11 6.58743 11.7203 5.92199 12.6065C5.26713 13.4787 4.90955 14.5315 4.71841 15.2948L5.68845 15.5377ZM6.10498 16C5.79247 16 5.63465 15.7526 5.68845 15.5377L4.71841 15.2948C4.48477 16.2277 5.23424 17 6.10498 17V16ZM7.31868 16H6.10498V17H7.31868V16ZM7.79898 16.639C8.22104 15.1801 9.19435 13.4614 11.4949 13.0791L11.3309 12.0927C8.48101 12.5663 7.3095 14.7326 6.83838 16.361L7.79898 16.639Z" fill="#6C63FF"/>
</svg>
