<svg width="25" height="24" viewBox="0 0 25 24" fill="none" xmlns="http://www.w3.org/2000/svg">
<path d="M10.6437 6.62759C11.4303 4.6666 11.8236 3.6861 12.5 3.6861C13.1763 3.6861 13.5696 4.6666 14.3562 6.6276L14.3928 6.71891C14.8372 7.82678 15.0594 8.38071 15.5123 8.7174C15.9651 9.05409 16.5596 9.10733 17.7485 9.2138L17.9634 9.23305C19.9092 9.40732 20.8822 9.49445 21.0903 10.1134C21.2985 10.7324 20.576 11.3898 19.1309 12.7044L18.6487 13.1432C17.9172 13.8087 17.5514 14.1415 17.3809 14.5776C17.3491 14.659 17.3227 14.7423 17.3018 14.8271C17.1897 15.2818 17.2968 15.7645 17.5111 16.73L17.5777 17.0305C17.9714 18.8049 18.1682 19.692 17.8246 20.0747C17.6961 20.2177 17.5292 20.3206 17.3438 20.3712C16.8476 20.5066 16.1431 19.9326 14.7342 18.7845C13.809 18.0306 13.3464 17.6537 12.8153 17.5689C12.6064 17.5355 12.3935 17.5355 12.1846 17.5689C11.6535 17.6537 11.1909 18.0306 10.2658 18.7845C8.85681 19.9326 8.15234 20.5066 7.65614 20.3712C7.47072 20.3206 7.30381 20.2177 7.17538 20.0747C6.83171 19.692 7.02854 18.8049 7.42222 17.0305L7.48889 16.73C7.7031 15.7645 7.81021 15.2818 7.69815 14.8271C7.67725 14.7423 7.65081 14.659 7.61901 14.5776C7.44854 14.1415 7.08279 13.8087 6.35128 13.1432L5.869 12.7044C4.42395 11.3898 3.70143 10.7324 3.90961 10.1134C4.11779 9.49445 5.0907 9.40732 7.03651 9.23305L7.25145 9.2138C8.44036 9.10733 9.03482 9.05409 9.48767 8.7174C9.94052 8.38071 10.1627 7.82678 10.6071 6.71891L10.6437 6.62759Z" stroke="#E015F1"/>
</svg>
